<?xml version="1.0" encoding="UTF-8"?>
<svg id="a" xmlns="http://www.w3.org/2000/svg" height="440" viewBox="0 0 440 440" width="440"><defs>
<style>
.b{fill:#ea4435;}.c{fill:#547dbf;}.d{fill:#c42427;}.e{fill:#33a852;}.f{fill:#f9bc15;}</style>
</defs>
<path class="e" d="M49.7,392.79l94.3-.79,8.5-55.5H32.5l-4.49,31.99c-1.6,12.99,8.6,24.42,21.69,24.31Z"/>
<polygon class="f" points="32.5 296.5 152.5 296.5 160.5 240.5 40.5 240.5 32.5 296.5"/>
<polygon class="c" points="40.5 200.5 160.5 200.5 168.5 144.5 48.5 144.5 40.5 200.5"/>
<path class="b" d="M48.5,104.5l64,1,8-57h-45.26c-10.76,0-19.89,7.9-21.44,18.55l-5.3,37.45Z"/>
<path class="e" d="M312.5,88.5h77.21c10.78,0,19.92-7.93,21.45-18.6l5.34-37.4h-96l-8,56Z"/>
<path class="f" d="M256.5,32.5h-93.21c-10.78,0-19.92,7.93-21.45,18.6l-5.34,37.4h112l8-56Z"/>
<polygon class="c" points="248.5 88.5 312.5 88.5 264.5 424.5 200.5 424.5 248.5 88.5"/>
<polygon class="d" points="248.5 88.5 312.5 88.5 320.5 32.5 256.5 32.5 248.5 88.5"/></svg>